<svg xmlns="http://www.w3.org/2000/svg" width="1060" height="390" viewBox="0 0 1060 390"><rect width="1060" height="390" fill="white"/><defs><marker id="a" viewBox="0 0 10 10" refX="9" refY="5" markerWidth="6" markerHeight="6" orient="auto"><path d="M0 0 L10 5 L0 10 Z" fill="black"/></marker></defs><path d="M140 85 L335 155" fill="none" stroke="black" stroke-width="2" marker-end="url(#a)"/><path d="M400 85 L335 155" fill="none" stroke="black" stroke-width="2" marker-end="url(#a)"/><path d="M660 85 L725 155" fill="none" stroke="black" stroke-width="2" marker-end="url(#a)"/><path d="M920 85 L725 155" fill="none" stroke="black" stroke-width="2" marker-end="url(#a)"/><path d="M335 220 L530 290" fill="none" stroke="black" stroke-width="2" marker-end="url(#a)"/><path d="M725 220 L530 290" fill="none" stroke="black" stroke-width="2" marker-end="url(#a)"/><rect x="20" y="20" width="240" height="65" rx="7" fill="white" stroke="black" stroke-width="2"/><text x="140.0" y="61.5" text-anchor="middle" fill="black" font-family="Times New Roman,serif" font-size="27">192.168.0.0/24</text><rect x="280" y="20" width="240" height="65" rx="7" fill="white" stroke="black" stroke-width="2"/><text x="400.0" y="61.5" text-anchor="middle" fill="black" font-family="Times New Roman,serif" font-size="27">192.168.1.0/24</text><rect x="540" y="20" width="240" height="65" rx="7" fill="white" stroke="black" stroke-width="2"/><text x="660.0" y="61.5" text-anchor="middle" fill="black" font-family="Times New Roman,serif" font-size="27">192.168.2.0/24</text><rect x="800" y="20" width="240" height="65" rx="7" fill="white" stroke="black" stroke-width="2"/><text x="920.0" y="61.5" text-anchor="middle" fill="black" font-family="Times New Roman,serif" font-size="27">192.168.3.0/24</text><rect x="150" y="155" width="370" height="65" rx="7" fill="white" stroke="black" stroke-width="2"/><text x="335.0" y="196.5" text-anchor="middle" fill="black" font-family="Times New Roman,serif" font-size="27">192.168.0.0/23</text><rect x="540" y="155" width="370" height="65" rx="7" fill="white" stroke="black" stroke-width="2"/><text x="725.0" y="196.5" text-anchor="middle" fill="black" font-family="Times New Roman,serif" font-size="27">192.168.2.0/23</text><rect x="345" y="290" width="370" height="65" rx="7" fill="white" stroke="black" stroke-width="2"/><text x="530.0" y="331.5" text-anchor="middle" fill="black" font-family="Times New Roman,serif" font-size="27">192.168.0.0/22</text><text x="530" y="382" text-anchor="middle" fill="black" font-family="Times New Roman,serif" font-size="22">1024 direcciones: 192.168.0.0 a 192.168.3.255</text></svg>